<svg width="54" height="39" fill="none" xmlns="http://www.w3.org/2000/svg"><path d="M21.593 9c0 3.736-3.006 6.75-6.695 6.75-3.69 0-6.696-3.014-6.696-6.75s3.006-6.75 6.696-6.75S21.593 5.264 21.593 9zm.034 12.757c-2.388-1.182-4.816-1.666-6.65-1.666-2.202 0-5.72.895-8.67 2.725-2.947 1.827-5.057 4.402-5.057 7.673v4.716h14.02V33.66c0-2.966.965-5.915 2.64-8.366l3.717-3.538zm0 0c-1.425.99-2.712 2.067-3.716 3.538l3.716-3.538zm-2.5 10.576c0-3.794 2.567-6.792 6.156-8.915 3.581-2.119 7.878-3.168 10.655-3.168 2.777 0 7.075 1.05 10.655 3.168 3.59 2.123 6.157 5.121 6.157 8.915v5.417H19.127v-5.417zM44.436 9c0 4.225-3.608 7.75-8.185 7.75S28.066 13.225 28.066 9s3.608-7.75 8.185-7.75S44.436 4.775 44.436 9z" stroke="#EBEDF0" stroke-width="2.5"/></svg>