<svg width="43" height="46" fill="none" xmlns="http://www.w3.org/2000/svg"><path fill-rule="evenodd" clip-rule="evenodd" d="M31.856 15.643H2.5V43.5h38V15.643h-8.644zM21.799 0c3.127.08 6.098 1.37 8.282 3.595a11.883 11.883 0 013.41 8.316v1.232h9.096a.414.414 0 01.413.41v30.804c0 .436-.174.854-.484 1.162a1.66 1.66 0 01-1.17.481H1.654a1.66 1.66 0 01-1.17-.481A1.637 1.637 0 010 44.357V13.554a.41.41 0 01.413-.411H9.51V11.91a11.883 11.883 0 013.41-8.316A12.042 12.042 0 0121.2 0h.598zm7.557 11.91a7.763 7.763 0 00-.608-3.002 7.809 7.809 0 00-1.723-2.54 7.87 7.87 0 00-2.574-1.687 7.91 7.91 0 00-3.029-.574c-3.855.04-7.017 2.877-7.659 6.536a7.928 7.928 0 00-.119 1.37v1.13h15.712V11.91z" fill="#EBEDF0"/></svg>